<?xml version="1.0" encoding="UTF-8" standalone="no"?>
<!DOCTYPE svg PUBLIC "-//W3C//DTD SVG 1.1//EN"
 "http://www.w3.org/Graphics/SVG/1.1/DTD/svg11.dtd">
<!-- Generated by graphviz version 5.0.0 (20220707.1540)
 -->
<!-- Title: dependencies Pages: 1 -->
<svg width="329pt" height="250pt"
 viewBox="0.00 0.00 329.00 249.80" xmlns="http://www.w3.org/2000/svg" xmlns:xlink="http://www.w3.org/1999/xlink">
<g id="graph0" class="graph" transform="scale(1 1) rotate(0) translate(4 245.8)">
<title>dependencies</title>
<polygon fill="white" stroke="transparent" points="-4,4 -4,-245.8 325,-245.8 325,4 -4,4"/>
<text text-anchor="middle" x="160.5" y="-8.2" font-family="sans-serif" font-size="14.00">dependencies</text>
<g id="clust1" class="cluster">
<title>cluster_AppModule</title>
<polygon fill="none" stroke="black" stroke-dasharray="1,5" points="8,-108.8 8,-233.8 292,-233.8 292,-108.8 8,-108.8"/>
</g>
<g id="clust3" class="cluster">
<title>cluster_AppModule_imports</title>
<polygon fill="none" stroke="black" points="154,-116.8 154,-168.8 284,-168.8 284,-116.8 154,-116.8"/>
</g>
<g id="clust6" class="cluster">
<title>cluster_AppModule_providers</title>
<polygon fill="none" stroke="black" points="16,-116.8 16,-168.8 146,-168.8 146,-116.8 16,-116.8"/>
</g>
<g id="clust7" class="cluster">
<title>cluster_CustomerModule</title>
<polygon fill="none" stroke="black" stroke-dasharray="1,5" points="125,-32.8 125,-100.8 313,-100.8 313,-32.8 125,-32.8"/>
</g>
<g id="clust12" class="cluster">
<title>cluster_CustomerModule_providers</title>
<polygon fill="none" stroke="black" points="133,-40.8 133,-92.8 305,-92.8 305,-40.8 133,-40.8"/>
</g>
<!-- CustomerModule -->
<g id="node1" class="node">
<title>CustomerModule</title>
<polygon fill="#8dd3c7" stroke="black" points="275.99,-160.8 272.99,-164.8 251.99,-164.8 248.99,-160.8 162.01,-160.8 162.01,-124.8 275.99,-124.8 275.99,-160.8"/>
<text text-anchor="middle" x="219" y="-138.6" font-family="Times,serif" font-size="14.00">CustomerModule</text>
</g>
<!-- AppModule -->
<g id="node2" class="node">
<title>AppModule</title>
<polygon fill="#8dd3c7" stroke="black" points="191.66,-225.8 188.66,-229.8 167.66,-229.8 164.66,-225.8 108.34,-225.8 108.34,-189.8 191.66,-189.8 191.66,-225.8"/>
<text text-anchor="middle" x="150" y="-203.6" font-family="Times,serif" font-size="14.00">AppModule</text>
</g>
<!-- CustomerModule&#45;&gt;AppModule -->
<g id="edge1" class="edge">
<title>CustomerModule&#45;&gt;AppModule</title>
<path fill="none" stroke="black" d="M176.92,-160.91C176.92,-160.91 176.92,-179.79 176.92,-179.79"/>
<polygon fill="black" stroke="black" points="173.42,-179.79 176.92,-189.79 180.42,-179.79 173.42,-179.79"/>
</g>
<!-- AppService -->
<g id="node3" class="node">
<title>AppService</title>
<ellipse fill="#fdb462" stroke="black" cx="81" cy="-142.8" rx="56.75" ry="18"/>
<text text-anchor="middle" x="81" y="-138.6" font-family="Times,serif" font-size="14.00">AppService</text>
</g>
<!-- AppService&#45;&gt;AppModule -->
<g id="edge2" class="edge">
<title>AppService&#45;&gt;AppModule</title>
<path fill="none" stroke="black" d="M122.9,-155.03C122.9,-155.03 122.9,-179.48 122.9,-179.48"/>
<polygon fill="black" stroke="black" points="119.4,-179.48 122.9,-189.48 126.4,-179.48 119.4,-179.48"/>
</g>
<!-- CustomerService -->
<g id="node4" class="node">
<title>CustomerService</title>
<ellipse fill="#fdb462" stroke="black" cx="219" cy="-66.8" rx="77.59" ry="18"/>
<text text-anchor="middle" x="219" y="-62.6" font-family="Times,serif" font-size="14.00">CustomerService</text>
</g>
<!-- CustomerService&#45;&gt;CustomerModule -->
<g id="edge3" class="edge">
<title>CustomerService&#45;&gt;CustomerModule</title>
<path fill="none" stroke="black" d="M219,-84.81C219,-84.81 219,-114.65 219,-114.65"/>
<polygon fill="black" stroke="black" points="215.5,-114.65 219,-124.65 222.5,-114.65 215.5,-114.65"/>
</g>
</g>
</svg>
